<svg version="1.1" id="Layer_1" xmlns="http://www.w3.org/2000/svg" xmlns:xlink="http://www.w3.org/1999/xlink" x="0px" y="0px"
	 width="100%" viewBox="0 0 368 368" enable-background="new 0 0 368 368" xml:space="preserve">
<path fill="#000000" opacity="1.000000" stroke="none" 
	d="
M157.468658,369.000000 
	C153.866348,366.464050 149.879501,366.395905 146.242859,365.570801 
	C116.694313,358.866486 90.812271,345.204712 68.116035,325.228882 
	C33.752010,294.983826 12.873217,256.897797 8.156062,211.782425 
	C-0.010684,133.674835 29.730371,72.559555 96.648621,30.739420 
	C120.118752,16.071913 146.394882,8.664107 174.084305,6.607511 
	C223.947449,2.903990 268.284393,16.939167 306.465179,49.063591 
	C339.071869,76.498116 359.381042,111.520073 367.438538,153.497513 
	C367.750458,155.122375 368.304688,156.700760 368.872986,158.650391 
	C369.000000,178.687561 369.000000,198.375122 368.808289,218.840576 
	C367.827118,222.835175 367.071320,226.060608 366.243286,229.267349 
	C348.520355,297.903656 305.954926,342.862976 238.127502,363.823303 
	C231.803223,365.777679 225.017746,365.964783 219.000000,369.000000 
	C198.645767,369.000000 178.291550,369.000000 157.468658,369.000000 
M26.651741,122.074036 
	C14.067173,152.333939 10.117930,183.827637 15.690803,215.979050 
	C24.593866,267.343262 51.036194,307.621277 95.088577,335.947266 
	C129.869339,358.311554 167.978516,367.113159 208.940155,362.419708 
	C238.924713,358.984039 266.548462,348.525024 290.730896,330.273102 
	C345.217865,289.148682 369.191742,234.179382 362.320160,166.439819 
	C359.005493,133.764221 346.250244,104.196831 325.119690,78.945442 
	C281.479248,26.794344 225.259064,4.452659 158.399261,16.072569 
	C96.327744,26.860298 52.418251,63.349712 26.651741,122.074036 
z"/>
<path fill="#000000" opacity="1.000000" stroke="none" 
	d="
M297.776825,134.349152 
	C317.727905,178.215271 315.135956,220.261917 287.849396,259.675903 
	C268.099609,288.203369 240.095825,304.480164 205.677383,309.390045 
	C151.103836,317.175171 98.202370,287.226013 76.946037,236.298965 
	C66.661774,211.659363 64.446175,186.126999 70.963173,160.045792 
	C80.465561,122.016930 103.497345,95.113792 138.550385,78.224258 
	C151.277954,72.091766 165.046906,67.949837 178.860855,67.507828 
	C230.335205,65.860748 270.670380,85.814827 296.394531,131.831940 
	C296.800873,132.558823 297.195984,133.291992 297.776825,134.349152 
M82.316063,235.205750 
	C87.476707,247.280884 94.749084,257.989380 103.518959,267.698730 
	C105.589531,269.991119 107.419540,271.716888 111.551620,270.752075 
	C115.680817,269.787964 120.278221,269.097809 124.628403,269.337463 
	C130.236969,269.646393 135.489838,268.063232 140.903320,267.392029 
	C142.273727,267.222107 143.628708,266.389618 143.567719,264.868622 
	C140.813843,262.871155 137.927643,266.350098 134.949356,263.828400 
	C138.589127,261.736298 141.676147,259.464355 144.004974,255.717102 
	C138.867157,252.903992 139.469055,246.670853 135.525635,243.006165 
	C133.951431,241.543228 134.375793,238.501587 137.630295,237.662262 
	C141.819351,236.581940 145.985123,235.410797 150.177658,234.344666 
	C153.135300,233.592545 156.095291,233.029114 156.524109,229.115936 
	C156.969727,225.049438 153.643341,224.718811 151.222672,223.601151 
	C144.532806,220.512344 137.730667,217.906525 138.253662,208.339554 
	C138.480667,204.187317 138.932190,201.235931 143.430573,200.118149 
	C146.006866,199.477982 148.476791,198.417465 151.008713,197.589355 
	C155.630051,196.077866 157.307983,192.587738 156.391159,188.219559 
	C155.762314,185.223450 156.237381,182.851868 158.260422,180.929565 
	C162.608170,176.798355 161.933975,171.580154 161.769318,166.443420 
	C161.716675,164.801163 161.072952,163.505951 159.132309,163.458710 
	C157.312683,163.414413 156.452545,164.412872 156.102203,166.117706 
	C155.747574,167.843399 156.321960,169.860382 153.861862,171.830872 
	C146.630478,166.543076 138.650757,161.803268 132.032227,155.344193 
	C129.023941,152.408386 130.890564,149.074707 135.329681,148.802490 
	C140.155731,148.506531 144.185944,146.080154 148.453674,144.291840 
	C150.126846,143.590714 151.129349,142.085129 150.662598,140.239655 
	C149.664169,136.291916 152.213348,135.034302 155.072220,133.642761 
	C166.756149,127.955620 179.157974,123.912331 190.738358,117.973869 
	C192.559616,117.039917 194.921753,117.012161 197.053131,116.881927 
	C198.561066,116.789787 200.427658,118.444405 201.397827,116.170265 
	C202.177383,114.342941 200.638321,113.046555 199.621216,111.791847 
	C196.834564,108.354195 195.031250,108.395531 192.212463,112.106483 
	C191.465958,113.089272 190.733292,113.726265 189.610046,114.213043 
	C180.294998,118.250015 171.026947,122.395470 161.710403,126.428947 
	C160.062332,127.142441 158.353760,128.536728 156.045303,127.077927 
	C157.842667,123.641991 161.930298,123.768173 164.295959,121.036560 
	C161.399582,116.748100 157.151093,113.972961 153.777954,110.378555 
	C151.637924,108.098145 151.676514,106.468018 154.733795,105.096451 
	C157.616974,103.802971 160.415192,102.308907 163.195923,100.801842 
	C165.379166,99.618584 166.553207,97.665367 165.179535,95.414307 
	C163.199463,92.169525 164.628540,90.935150 167.403519,89.311859 
	C173.803726,85.567886 181.088989,83.331528 186.405975,77.658585 
	C188.615662,75.300995 194.207016,76.898560 196.525330,79.405106 
	C206.303009,89.976753 211.787018,103.551567 221.170135,114.383286 
	C221.278976,114.508926 221.368393,114.651176 221.472488,114.781197 
	C222.861069,116.515755 222.465195,118.107948 220.535080,118.775002 
	C215.786072,120.416275 211.436737,124.980385 205.726746,120.517036 
	C204.619888,124.316010 206.517639,126.419052 208.417023,128.517014 
	C218.472687,139.623978 228.523727,150.735123 238.590897,161.831665 
	C242.317581,165.939392 242.046585,167.123901 236.813507,169.020782 
	C233.839813,170.098694 230.824951,171.066910 227.873718,172.201782 
	C224.228333,173.603607 220.558807,175.474182 218.732498,169.933746 
	C216.652847,171.215378 217.404373,172.849060 217.178268,174.247604 
	C216.231644,180.102905 219.479172,185.188858 220.102463,190.743362 
	C220.543823,194.676712 220.974960,198.533005 226.909622,198.665131 
	C224.594589,201.401611 226.211899,202.730103 227.801208,204.070892 
	C229.583603,205.574554 231.365219,207.079132 233.142868,208.588379 
	C236.033310,211.042404 238.095642,213.596771 235.033585,217.428253 
	C234.404083,218.215897 234.114456,219.788986 234.440201,220.733871 
	C235.610092,224.127441 234.108643,225.269348 231.034927,225.671295 
	C229.398178,225.885315 227.809326,226.478867 226.204773,226.922562 
	C224.237503,227.466522 222.301987,228.027725 222.080566,230.583801 
	C221.875244,232.954224 223.240875,234.167068 225.088486,235.279709 
	C229.508392,237.941391 233.778015,240.855896 238.231155,243.458069 
	C241.840210,245.567001 241.776291,248.511993 239.913818,251.359055 
	C237.371201,255.245773 235.565262,260.244873 229.551041,260.299164 
	C228.968094,260.304443 228.394135,261.305023 227.806366,261.852570 
	C229.137848,264.399811 231.547852,264.897888 233.586014,265.866547 
	C240.501831,269.153320 247.497498,272.273987 254.383408,275.621155 
	C261.936462,279.292572 262.860016,279.435120 268.794464,273.533661 
	C297.477966,245.009537 310.050018,210.853668 303.660461,170.543442 
	C297.836548,133.801483 278.260529,105.843681 246.005966,87.958450 
	C206.925339,66.288170 167.025894,66.961815 128.685791,90.041557 
	C91.602310,112.364845 73.817749,146.705002 72.603577,189.438293 
	C72.163910,204.912781 75.703217,220.151779 82.316063,235.205750 
M197.921478,180.214249 
	C198.682373,177.880569 199.237839,175.454041 200.242599,173.230560 
	C203.290085,166.486694 202.460510,159.579529 200.635803,152.914795 
	C199.135971,147.436630 196.523056,146.958878 191.713135,150.191330 
	C188.101013,152.618820 186.504486,164.709717 189.386444,167.940872 
	C189.710831,168.304581 190.122162,168.654434 190.564789,168.838821 
	C193.844131,170.204956 194.674026,172.705093 194.388580,176.062866 
	C194.220322,178.041824 193.744247,180.735138 197.921478,180.214249 
M145.236954,293.804474 
	C146.265640,291.027405 144.511490,289.799774 142.396469,288.897156 
	C137.671555,286.880737 132.933853,284.890625 128.157684,283.000153 
	C126.562103,282.368561 124.827988,281.402771 123.205376,282.850586 
	C123.024933,283.957489 123.536896,284.629059 124.200203,285.130280 
	C129.520218,289.150421 135.247742,292.475311 141.389236,295.078827 
	C142.704681,295.636475 143.966187,295.809082 145.236954,293.804474 
M196.084885,218.904709 
	C198.953491,219.856659 199.508209,217.990738 199.538773,215.870041 
	C199.559189,214.453552 198.660599,213.101608 197.134644,213.558929 
	C194.558334,214.331024 195.255859,216.499832 196.084885,218.904709 
M235.906982,294.080109 
	C238.811325,295.306335 240.259369,293.350922 242.278198,291.411102 
	C238.948807,289.891724 237.201965,291.274109 235.906982,294.080109 
z"/>
<path fill="#000000" opacity="1.000000" stroke="none" 
	d="
M277.881836,70.203362 
	C279.515533,70.641167 280.753845,71.337502 282.035095,71.428459 
	C283.863953,71.558319 285.147217,70.330956 284.273102,68.605682 
	C282.644440,65.391174 279.891327,62.934170 276.424377,62.103024 
	C273.385223,61.374435 272.396057,64.454056 271.068420,66.469345 
	C268.256866,70.737206 266.478943,75.649635 263.179596,79.666924 
	C259.126038,76.179855 258.922821,74.861092 262.024567,69.448738 
	C263.852417,66.259201 265.137756,63.362911 260.890533,61.082375 
	C259.199585,60.174438 257.460266,59.632980 255.684357,60.697056 
	C253.754517,61.853348 254.132187,63.755848 254.209106,65.610207 
	C254.332520,68.585136 257.040314,71.321693 254.994843,75.292938 
	C250.173553,71.622215 250.354706,66.472572 249.472244,61.902966 
	C248.323975,55.957146 252.385956,53.743176 257.108612,52.671452 
	C257.021637,51.806396 257.079803,51.437214 256.942139,51.168259 
	C255.983932,49.296005 252.240829,48.271904 254.371460,45.544727 
	C256.431915,42.907337 258.606415,45.696930 260.464325,46.642376 
	C281.703003,57.450294 299.587372,72.412834 314.627350,90.824722 
	C317.020508,93.754379 319.269348,95.304443 323.544678,94.060280 
	C329.400635,92.356117 335.174316,99.405830 334.053741,106.404106 
	C333.743469,108.341721 332.967712,110.257462 332.110992,112.041832 
	C330.989899,114.376915 330.029816,116.545677 331.713379,119.049858 
	C332.495819,120.213669 332.681763,121.562675 331.213715,122.545486 
	C330.075317,123.307594 328.929688,123.307976 328.120117,122.195000 
	C326.297607,119.689484 324.371094,120.889893 322.426849,121.891594 
	C318.726288,123.798172 315.039490,125.731461 311.337158,127.634590 
	C309.894043,128.376404 308.543427,129.565475 306.473053,128.650757 
	C305.494629,125.481857 306.405060,122.965523 309.422089,121.269615 
	C312.906189,119.311180 316.432098,117.427269 319.931702,115.496193 
	C321.839264,114.443581 323.204559,113.129517 322.142059,110.689133 
	C321.048218,108.176727 319.272186,108.323936 317.222076,109.363846 
	C316.780792,109.587677 316.249725,109.894630 315.812073,109.826874 
	C307.817383,108.589272 304.714020,112.695702 305.141846,120.351616 
	C300.625824,118.106155 301.077759,113.992180 307.294708,95.938232 
	C301.027557,97.849480 298.114166,104.229958 292.131500,106.358528 
	C290.081879,103.054726 290.373047,100.321129 293.217987,97.874809 
	C295.996124,95.485939 298.791107,93.115250 301.521698,90.672874 
	C303.777710,88.654991 304.846802,86.438034 302.198822,83.888596 
	C299.545197,81.333717 297.698700,83.156105 295.940125,85.088921 
	C292.178375,89.223312 288.459930,93.397125 284.895447,97.363708 
	C283.881653,96.889595 283.355774,96.789742 283.326172,96.608688 
	C282.309875,90.397087 279.569183,85.093674 275.910034,79.948967 
	C273.793701,76.973404 273.756714,72.919342 277.881836,70.203362 
M285.659790,77.331261 
	C284.126892,77.644653 282.203308,77.279846 281.770294,79.497047 
	C282.186646,81.017952 283.379425,81.615211 284.622620,82.111671 
	C287.694122,83.338242 289.652008,81.486084 291.524994,79.518074 
	C292.350769,78.650436 293.200623,77.449081 292.226685,76.446442 
	C290.101379,74.258438 288.361725,77.064041 285.659790,77.331261 
M326.502441,101.855446 
	C322.858368,102.950020 324.675720,104.958237 325.748749,106.736938 
	C326.379669,107.782722 327.456421,108.643394 328.583588,107.596054 
	C330.263519,106.035088 329.702087,104.340385 328.289062,102.851067 
	C327.958191,102.502342 327.499817,102.274582 326.502441,101.855446 
z"/>
<path fill="#000000" opacity="1.000000" stroke="none" 
	d="
M151.350616,334.463013 
	C150.014069,336.969482 151.156876,341.200317 147.757980,341.178528 
	C144.206100,341.155792 143.435272,337.071106 141.993088,334.359589 
	C141.309464,333.074280 141.477692,331.719055 143.040100,331.007141 
	C147.712006,328.878418 145.676483,327.493073 142.532806,326.189026 
	C141.318268,325.685181 140.128876,325.120697 138.986664,324.610077 
	C133.831589,329.192902 127.118805,333.004944 132.482712,341.934326 
	C125.926285,335.290649 122.654190,328.037018 124.828430,318.634644 
	C118.974937,322.672699 118.198662,329.899414 113.663429,334.750214 
	C110.561394,332.854797 110.078957,330.459076 111.538231,327.524902 
	C112.797867,324.992188 114.040932,322.443024 115.463829,320.001648 
	C117.725601,316.120880 116.430389,313.823730 112.264229,312.340454 
	C107.423492,316.877533 105.336121,323.572540 99.399895,328.846466 
	C98.795372,322.312561 94.905891,318.575348 91.951302,314.173584 
	C88.881020,309.599426 90.941895,306.219452 96.699768,303.572571 
	C96.792717,303.262085 96.967598,302.946472 96.954407,302.638885 
	C96.871338,300.701080 93.259300,299.056580 96.023575,297.041656 
	C98.226677,295.435791 100.013039,297.835083 101.712387,298.947418 
	C104.645523,300.867371 106.899857,302.225830 110.400795,299.088287 
	C114.434914,295.472900 122.391373,298.696228 123.043266,304.809387 
	C123.971367,313.512512 129.904861,315.607056 136.309326,318.115143 
	C142.939713,320.711731 149.338684,323.925476 156.555222,324.765778 
	C158.526138,324.995300 160.725296,326.038879 161.486465,323.238220 
	C162.035294,321.218842 162.759933,319.465668 165.057480,320.272522 
	C167.836990,321.248627 166.678726,323.376953 165.897324,325.243958 
	C165.791107,325.497772 165.976746,325.873688 166.089676,326.587830 
	C172.554062,328.592804 179.408203,327.940765 186.136826,328.373688 
	C189.116913,328.565430 192.116470,328.434113 195.104416,328.533081 
	C196.598495,328.582550 198.319626,328.627777 198.716675,330.497711 
	C199.126541,332.427948 197.648743,333.134644 196.122421,333.499878 
	C192.845062,334.284088 192.326721,336.564606 192.269653,339.532867 
	C192.184494,343.962646 192.871185,348.460327 191.657974,352.988861 
	C187.513580,353.045959 186.910156,349.890869 186.036652,347.180420 
	C173.605438,348.481354 170.453003,346.524750 169.194748,336.863098 
	C170.231201,335.216461 172.967911,336.415314 173.651718,334.191162 
	C167.597488,329.873993 162.986710,331.541809 161.093338,338.475616 
	C160.016449,342.419312 160.117050,346.744293 157.575836,350.504425 
	C154.560242,348.987244 153.234726,346.962402 154.125214,343.637177 
	C154.854950,340.912231 155.295013,338.111023 155.941299,335.361938 
	C156.392426,333.442963 156.433716,331.731750 154.431015,330.634644 
	C152.125580,330.707886 152.092514,332.676483 151.350616,334.463013 
M101.090591,314.769226 
	C102.927200,314.065460 102.874260,312.860596 101.597023,311.804962 
	C99.905800,310.407166 97.999039,309.517242 95.957504,311.381226 
	C96.635139,313.861450 98.266991,314.700134 101.090591,314.769226 
M114.324753,304.977936 
	C113.902641,307.354401 115.602852,308.034363 117.324669,308.401794 
	C118.180511,308.584412 118.764404,307.670166 118.635979,306.775452 
	C118.302322,304.450836 116.839279,303.945068 114.324753,304.977936 
M175.308609,338.716492 
	C174.167511,337.708801 172.576385,336.902039 173.240234,339.392700 
	C173.786240,341.441223 175.608185,343.198730 178.355942,342.086060 
	C178.392609,339.981354 176.626038,339.989441 175.308609,338.716492 
z"/>
<path fill="#000000" opacity="1.000000" stroke="none" 
	d="
M127.457855,65.580612 
	C128.243408,67.782608 128.913315,69.631660 129.580643,71.473549 
	C128.878754,71.962334 128.327957,72.561928 128.119156,72.460114 
	C120.497261,68.743622 113.015060,75.748703 105.057800,72.123978 
	C105.735382,76.833519 109.564110,79.262672 110.738312,83.334869 
	C106.824478,85.047325 103.950005,84.469437 101.538269,81.107277 
	C99.407074,78.136208 97.023064,75.346886 94.761757,72.468620 
	C92.991646,70.215569 90.902397,69.901260 88.731491,71.722733 
	C86.374115,73.700676 87.014336,75.930672 88.866180,77.781662 
	C92.277496,81.191406 95.862350,84.427010 99.345802,87.765533 
	C100.056984,88.447121 100.772217,89.201492 100.556259,90.350357 
	C94.672340,95.695747 91.493370,87.385536 86.272957,87.168800 
	C86.498680,92.203323 84.729759,94.851662 79.575523,93.636658 
	C78.742630,93.440331 77.892525,93.804199 77.575005,94.733650 
	C77.172623,95.911484 77.863083,96.618668 78.800926,97.125580 
	C80.659698,98.130264 82.635208,97.884491 84.649719,97.785355 
	C86.349915,97.701683 88.155533,96.414062 90.367622,98.410583 
	C86.129150,102.700195 80.775734,102.001152 75.763817,102.313553 
	C69.846291,102.682426 69.784378,97.741699 68.675804,94.074760 
	C68.080231,93.956245 67.733200,93.774574 67.457687,93.850945 
	C65.874199,94.289825 64.383980,96.505936 62.665737,94.230270 
	C60.886482,91.873802 63.067173,90.561111 64.318359,89.196335 
	C69.154472,83.921173 74.132446,78.775932 78.958939,73.492188 
	C80.540138,71.761192 83.666985,69.931114 81.726082,67.367378 
	C79.780586,64.797585 77.114830,67.092682 75.112671,68.400749 
	C72.462555,70.132156 70.267906,70.194588 67.850327,67.230148 
	C72.576073,62.592182 78.387779,62.121117 84.101410,62.923084 
	C89.120644,63.627590 92.256157,62.557987 96.286690,58.955761 
	C101.598564,54.208355 108.832336,51.597191 115.276649,48.136166 
	C119.380386,45.932178 123.534416,43.819561 127.700836,41.735821 
	C129.078369,41.046879 130.568741,40.579308 131.602417,42.375324 
	C132.666901,44.224922 131.303223,45.026970 130.113419,46.000523 
	C128.268021,47.510525 125.611237,48.072002 124.314537,50.729656 
	C126.577049,52.035179 128.733261,50.666164 130.783875,51.148151 
	C133.772705,51.850666 136.083847,53.276936 137.033340,56.238544 
	C137.933533,59.046329 136.789444,61.498554 134.953537,63.582466 
	C133.067917,65.722794 131.076889,65.862740 129.241318,63.747063 
	C129.064606,62.330532 129.883667,61.667496 130.486038,60.887672 
	C131.424942,59.672169 132.350281,58.387409 131.167633,56.870335 
	C130.473251,55.979603 129.388870,56.029659 128.404449,56.337799 
	C126.621292,56.895958 125.443054,58.210159 125.677155,60.021683 
	C125.906837,61.799057 126.761719,63.495636 127.457855,65.580612 
M115.959084,65.687286 
	C116.551254,62.459976 114.462532,62.825451 112.735046,63.572811 
	C110.854012,64.386612 109.169670,66.021812 110.253128,68.229553 
	C111.151062,70.059242 112.829178,68.995232 114.033470,68.090469 
	C114.675453,67.608154 115.135010,66.883003 115.959084,65.687286 
M74.098602,86.150848 
	C73.708374,86.944901 72.627319,87.657211 73.779762,88.642853 
	C79.147621,87.311852 79.684410,86.684845 78.753731,82.798706 
	C76.629807,82.694443 75.655647,84.339607 74.098602,86.150848 
M102.708733,66.600288 
	C103.355713,64.711746 105.227692,63.254498 104.939484,60.868027 
	C100.427094,62.425293 99.731544,64.167892 102.708733,66.600288 
z"/>
<path fill="#000000" opacity="1.000000" stroke="none" 
	d="
M347.369019,207.170593 
	C346.428040,213.363495 345.557770,219.112900 344.580292,224.844025 
	C344.369232,226.081390 344.196442,227.650574 342.243286,227.438293 
	C340.629456,227.262894 339.885315,226.277390 339.959656,224.726074 
	C340.071533,222.392151 339.122223,220.806000 336.793823,220.376495 
	C334.653046,219.981598 334.886261,217.869507 333.554291,216.305817 
	C329.823639,221.874161 323.486084,216.057938 319.467560,220.498535 
	C317.357117,217.532806 319.016388,216.121292 320.582794,215.017349 
	C324.734528,212.091309 325.052856,208.377975 323.268799,204.055206 
	C322.213074,201.497162 321.318817,198.935059 325.001587,197.488419 
	C327.199158,198.446213 327.811646,202.637634 331.409821,200.589630 
	C333.047180,199.657684 334.604065,198.842712 334.644257,196.597092 
	C334.678101,194.707993 333.997589,193.299881 332.247589,192.633728 
	C329.245575,191.490952 327.939575,189.752304 329.416229,186.505432 
	C330.581604,183.942963 328.247711,182.653320 327.127502,180.904404 
	C325.652466,178.601547 323.450867,176.152954 327.210449,174.031769 
	C328.367584,174.200699 328.837433,174.836578 329.250061,175.598770 
	C330.162170,177.283661 331.315826,178.796387 333.512543,178.155945 
	C334.841034,177.768616 334.974091,176.445236 334.837433,175.234329 
	C334.586639,173.011566 333.459412,171.309006 331.139893,171.210449 
	C328.176880,171.084549 325.196655,171.400284 322.222534,171.470032 
	C321.592468,171.484802 320.956757,171.259384 320.437897,171.165329 
	C320.219971,170.666092 319.895020,170.239334 319.991333,170.096344 
	C323.281158,165.211868 323.906464,159.796585 324.142456,154.017456 
	C324.282837,150.578857 327.277130,147.894073 331.195496,148.435852 
	C335.060150,148.970215 337.038239,151.978165 337.873169,155.617569 
	C338.215027,157.107834 337.041199,158.952774 338.989990,160.141525 
	C340.909119,159.254745 340.336792,157.777267 339.913696,156.358765 
	C338.953064,153.137894 338.711365,149.818878 338.591034,146.490341 
	C338.539734,145.070068 338.023621,143.248566 340.258118,142.987961 
	C342.276306,142.752579 342.806580,144.452438 343.058197,145.869186 
	C343.929840,150.777069 344.525238,155.734161 345.403656,160.640671 
	C345.877930,163.289749 345.666351,166.226639 347.889832,168.596451 
	C351.439941,166.824051 351.905548,163.759293 351.796417,160.559204 
	C351.696625,157.634293 352.696259,155.812714 356.259766,155.201141 
	C358.652740,161.571182 355.217987,166.382141 351.895935,170.600922 
	C349.325562,173.865067 348.701630,176.776764 348.486847,180.848480 
	C348.032257,189.468491 349.022614,198.161697 347.369019,207.170593 
M339.959412,192.548920 
	C340.407715,196.357681 338.589203,200.667419 342.802185,203.768021 
	C343.083069,192.491592 345.124481,181.203766 341.932281,169.748428 
	C339.762451,170.760132 340.289093,172.095856 339.968536,173.135315 
	C338.064697,179.309174 339.807465,185.453156 339.959412,192.548920 
M332.208649,204.862305 
	C328.705536,208.823944 332.213409,210.137543 334.804932,213.234772 
	C335.694672,208.988113 337.019928,206.058136 332.208649,204.862305 
M328.440796,154.846451 
	C326.783264,157.477432 328.261292,159.198273 330.307648,160.499268 
	C331.352722,161.163696 332.853302,160.850479 333.088806,159.467438 
	C333.498718,157.060089 332.155151,155.434006 329.960846,154.525528 
	C329.687897,154.412506 329.318420,154.532654 328.440796,154.846451 
z"/>
<path fill="#000000" opacity="1.000000" stroke="none" 
	d="
M198.066467,30.689970 
	C209.264679,31.648434 220.034988,32.481121 230.352188,35.915398 
	C231.988831,36.460194 234.941025,36.043411 234.640701,39.021339 
	C234.371567,41.690029 232.092010,40.879593 230.310822,40.928543 
	C227.798050,40.997585 227.799713,43.189617 227.359360,44.894787 
	C225.918793,50.473167 224.523285,56.063179 223.052200,61.878963 
	C219.156006,60.499779 217.436157,58.574287 218.332565,54.918312 
	C219.361038,50.723732 220.172867,46.471901 221.324432,42.312954 
	C222.215866,39.093410 220.389343,38.073418 217.908691,37.499786 
	C215.135849,36.858593 213.707642,37.861134 213.075989,40.874008 
	C211.850250,46.720497 212.961075,52.873703 210.767563,58.511513 
	C210.294724,58.615398 209.797134,58.847672 209.692307,58.730015 
	C205.664291,54.209160 200.240387,52.634144 194.774536,50.473095 
	C187.346573,47.536293 188.424988,40.959461 196.562958,36.186890 
	C196.375671,35.936943 196.227127,35.516384 195.994034,35.462666 
	C184.596802,32.836086 183.564911,33.893723 184.961975,45.490356 
	C185.404755,49.165806 186.235901,52.932697 185.523392,56.899738 
	C181.995605,56.898228 179.960312,55.498913 179.100464,52.312035 
	C177.325012,45.731724 175.590424,44.976665 168.435837,47.731907 
	C169.091156,51.980835 174.095123,52.549042 175.777802,56.040195 
	C175.335861,56.447823 174.996567,57.031105 174.665115,57.026676 
	C167.738083,56.934155 158.545975,47.481075 158.601410,40.454979 
	C158.611771,39.142204 158.089111,38.389023 157.278091,37.453602 
	C154.610962,34.377373 155.142899,33.417439 159.187653,32.568581 
	C164.684830,31.414902 170.456055,32.207581 176.292725,30.178505 
	C174.266876,26.567293 171.324905,25.234369 167.698883,25.202990 
	C164.632050,25.176451 162.620361,24.058458 162.077271,20.452841 
	C164.701797,19.182453 167.216705,19.591633 169.670578,20.588438 
	C171.198456,21.209084 172.988388,21.770264 174.021133,22.928440 
	C180.428925,30.114433 189.093170,30.107342 198.066467,30.689970 
M203.347305,46.900215 
	C204.621719,46.385860 205.889587,45.759899 205.487534,44.090942 
	C205.107666,42.514042 203.657715,42.301632 202.336044,42.255886 
	C199.668365,42.163567 196.998627,42.204296 195.986832,45.566582 
	C197.812454,48.018772 200.175095,47.823627 203.347305,46.900215 
M176.118713,40.990063 
	C177.581741,39.566177 177.608109,37.903503 176.129120,36.720074 
	C174.620712,35.513100 172.792847,35.673347 171.235672,36.954418 
	C171.788193,41.371075 171.788193,41.371075 176.118713,40.990063 
z"/>
<path fill="#000000" opacity="1.000000" stroke="none" 
	d="
M40.091347,134.108932 
	C41.837078,129.034943 43.427834,124.300278 45.141506,119.610519 
	C45.665855,118.175545 45.741230,116.017357 48.196701,116.460152 
	C50.140522,116.810669 50.260269,118.345016 50.151810,119.938431 
	C49.904205,123.575821 52.425762,124.759880 55.240105,125.740898 
	C60.076241,127.426674 65.094589,128.668808 69.765945,131.299896 
	C67.809296,135.044037 65.209137,136.232346 61.415611,134.876724 
	C57.657478,133.533768 53.841503,132.352173 50.047050,131.111542 
	C47.719063,130.350388 46.196129,131.073471 45.490788,133.503937 
	C44.780407,135.951752 46.294846,136.789551 48.158066,137.460129 
	C49.092991,137.796616 50.299332,137.928635 50.886509,138.592316 
	C54.644688,142.840164 58.422695,146.747192 64.462349,142.483887 
	C65.852036,145.770416 63.945473,146.513962 62.285580,147.216232 
	C58.864670,148.663574 55.965973,150.373871 54.103790,153.994843 
	C52.694794,156.734604 49.860699,157.923218 47.192883,154.874786 
	C44.850662,152.198395 41.950352,152.969925 39.396332,153.883728 
	C37.515625,154.556625 37.381111,156.721985 37.840263,158.669815 
	C38.607807,161.925949 41.089375,162.365036 43.901684,162.757202 
	C48.928925,163.458206 54.165096,162.893250 60.190300,165.220779 
	C54.447197,169.627029 55.550632,175.716049 54.316799,181.184921 
	C52.918926,187.380951 48.842960,189.111206 43.304428,186.193802 
	C41.690395,185.343613 40.590096,185.581985 39.191525,186.412094 
	C37.200054,187.594070 35.089100,189.017334 32.781219,187.111938 
	C30.241890,185.015457 30.182220,182.036713 30.899183,179.293045 
	C31.739336,176.077942 32.284389,173.197662 29.633986,170.768570 
	C23.633633,171.302338 26.727592,180.941727 19.386675,180.248062 
	C18.702635,174.478851 21.951012,170.695084 25.908092,167.714951 
	C30.099773,164.558136 31.995199,161.007156 33.358017,155.697418 
	C34.760582,150.232819 35.017162,143.788330 39.295662,139.203339 
	C40.726482,137.670013 39.288231,135.966202 40.091347,134.108932 
M49.767506,178.985214 
	C49.203358,172.096008 45.296528,168.522903 39.385433,169.283905 
	C37.405262,169.538834 36.514538,170.580978 35.987209,172.312592 
	C35.668587,173.358871 35.638466,174.241531 36.622963,174.928207 
	C38.130104,175.979446 39.351379,175.483444 40.591145,174.349426 
	C41.428505,173.583496 42.422054,172.912506 43.758022,173.296829 
	C45.138348,174.768402 43.751549,176.934280 44.927612,178.401932 
	C46.161839,179.942139 47.039463,183.325928 49.767506,178.985214 
z"/>
<path fill="#000000" opacity="1.000000" stroke="none" 
	d="
M275.574524,318.477051 
	C276.671112,320.856384 278.648163,322.490784 278.344055,325.296051 
	C275.727142,325.848816 273.605865,325.507080 271.657593,323.366486 
	C267.888123,319.224854 266.544525,319.323303 261.830933,323.594971 
	C263.992828,326.664581 268.412292,325.436188 270.869385,328.055023 
	C265.763062,330.979767 254.404312,327.561920 251.801987,322.311951 
	C250.913025,320.518494 250.344482,318.870514 247.896118,319.720764 
	C245.240524,320.642975 245.649323,322.474121 246.305283,324.577332 
	C247.867645,329.586853 250.737106,334.183136 251.348206,339.451141 
	C250.797668,339.742401 250.405579,340.096008 250.248474,340.011719 
	C245.633057,337.535065 240.951843,335.651825 235.503372,335.562134 
	C233.171143,335.523682 231.054642,333.529785 230.066299,330.923645 
	C229.669006,329.876068 228.968750,328.804840 228.112335,328.103394 
	C226.921371,327.127930 224.582504,327.221832 224.918213,324.911194 
	C225.249390,322.631805 227.484650,322.496033 229.118439,321.926697 
	C241.748169,317.525330 253.741257,311.879700 264.885254,304.417450 
	C268.429260,302.044373 269.711792,300.215271 265.665588,297.004089 
	C263.001862,294.890106 262.544525,291.641998 265.250702,289.161530 
	C267.474487,287.123199 270.277008,285.226562 273.259155,288.237854 
	C272.930145,290.997040 267.167358,291.215149 270.517761,295.135498 
	C273.213379,298.289642 275.624756,296.991852 278.143036,294.815430 
	C279.148621,293.946381 280.482117,293.376709 281.698608,294.695435 
	C282.676270,295.755249 282.452179,296.888611 281.631805,297.850189 
	C279.855347,299.932343 281.087799,301.429810 282.375549,303.093201 
	C285.417847,307.022949 288.357422,311.032227 291.567566,315.314880 
	C288.303589,317.374969 285.871063,317.157196 283.673981,314.276764 
	C281.555115,311.498871 279.367645,308.769958 277.123810,306.092010 
	C275.813721,304.528442 274.267578,303.941498 272.319702,305.276947 
	C270.344177,306.631348 269.711761,308.266052 270.889618,310.387573 
	C272.342957,313.005249 273.890808,315.570435 275.574524,318.477051 
M238.214630,332.099762 
	C238.654007,331.886841 239.141983,331.738525 239.524857,331.450500 
	C241.978668,329.604462 241.956696,327.482697 240.359665,325.030853 
	C239.189957,323.235077 237.846344,323.200714 236.181747,324.131958 
	C233.125290,325.841827 234.978104,328.079193 235.581146,330.130219 
	C235.860291,331.079590 236.525009,331.849823 238.214630,332.099762 
z"/>
<path fill="#000000" opacity="1.000000" stroke="none" 
	d="
M47.294113,195.088074 
	C50.682335,194.849854 53.634899,194.700607 56.845158,194.538330 
	C56.913067,198.439621 55.355686,200.595047 51.930302,201.115845 
	C49.772308,201.443954 48.007137,202.048920 47.609314,204.446732 
	C47.234695,206.704651 48.133167,208.284622 50.337048,209.124786 
	C52.821438,210.071915 53.582798,211.931259 52.576973,214.317688 
	C51.275028,217.406677 49.668041,220.373322 46.171410,221.459305 
	C45.068325,221.801926 44.368507,220.745407 43.992290,219.807220 
	C43.305840,218.095413 42.338097,216.873032 40.283367,217.352570 
	C38.362125,217.800949 37.790405,219.370834 37.461918,221.062515 
	C37.191914,222.453049 37.601532,224.410889 35.413479,224.406509 
	C33.129902,224.401947 33.039913,222.377930 32.857613,220.778336 
	C31.825687,211.723938 30.856079,202.662323 29.901735,193.599319 
	C29.723721,191.908798 29.652267,190.113632 31.926958,189.719330 
	C34.163193,189.331696 34.141766,191.157639 34.520966,192.556610 
	C35.204243,195.077377 36.980133,195.937332 39.426533,195.752640 
	C41.904202,195.565598 44.381172,195.369308 47.294113,195.088074 
M42.033615,208.573898 
	C42.894966,206.579865 43.144165,204.623734 40.930748,203.389816 
	C39.732033,202.721588 38.224533,202.788559 37.177589,203.755600 
	C35.759659,205.065308 35.914066,206.887177 36.745522,208.355377 
	C37.893421,210.382355 39.739841,210.005981 42.033615,208.573898 
z"/>
<path fill="#000000" opacity="1.000000" stroke="none" 
	d="
M63.123299,248.205612 
	C65.387466,254.255173 70.152885,256.615021 76.828346,257.781403 
	C71.849327,263.336578 68.978256,268.729004 71.850838,276.910461 
	C64.973335,273.380432 59.318371,271.557037 53.284889,276.200928 
	C54.817059,268.962067 52.492001,263.462402 48.110630,259.181641 
	C48.432003,257.415619 49.344807,256.863403 50.328587,256.807556 
	C55.017155,256.541595 57.929302,254.084061 59.696789,249.845779 
	C60.192142,248.657990 60.758713,246.728775 63.123299,248.205612 
z"/>
<path fill="#000000" opacity="1.000000" stroke="none" 
	d="
M309.565094,268.326294 
	C308.994263,264.124695 305.282318,262.085510 303.955719,257.798706 
	C310.380768,256.902679 315.076508,253.517578 317.665619,245.744812 
	C320.979736,252.843170 325.230255,256.893341 332.935425,257.826752 
	C327.474060,263.316071 325.094391,268.831390 327.787537,277.077179 
	C320.854980,272.965424 315.179596,271.883820 309.890350,276.092987 
	C307.964905,273.206757 309.796906,270.969513 309.565094,268.326294 
z"/>
<path fill="#000000" opacity="1.000000" stroke="none" 
	d="
M203.786407,358.328979 
	C201.102966,355.447479 203.363037,351.802826 202.035736,348.583496 
	C201.711670,347.797424 203.648087,346.623840 205.114471,346.948395 
	C206.818665,347.325500 208.327072,348.187866 208.133606,350.220367 
	C207.833801,353.369904 207.159393,356.422119 203.786407,358.328979 
z"/>
</svg>